<?xml version="1.0" encoding="UTF-8" standalone="no"?>
<!DOCTYPE svg PUBLIC "-//W3C//DTD SVG 1.1//EN" "http://www.w3.org/Graphics/SVG/1.1/DTD/svg11.dtd">
<svg width="100%" height="100%" viewBox="0 0 300 260" version="1.1" xmlns="http://www.w3.org/2000/svg" xmlns:xlink="http://www.w3.org/1999/xlink" xml:space="preserve" xmlns:serif="http://www.serif.com/" style="fill-rule:evenodd;clip-rule:evenodd;stroke-linejoin:round;stroke-miterlimit:2;">
    <g transform="matrix(1.99455,0,0,2.05427,-167.117,-159.446)">
        <path d="M111.368,164.949C108.969,164.949 106.678,164.682 104.497,164.147C102.316,163.613 100.287,162.844 98.411,161.84C96.535,160.837 94.839,159.616 93.323,158.176C91.807,156.736 90.509,155.111 89.429,153.301C88.35,151.49 87.515,149.516 86.926,147.378C86.337,145.241 86.043,142.961 86.043,140.54C86.043,137.006 86.746,133.783 88.153,130.871C89.56,127.959 91.524,125.461 94.043,123.378C96.562,121.295 99.562,119.686 103.041,118.552C106.52,117.418 110.343,116.851 114.509,116.851C116.756,116.851 119.134,117.02 121.642,117.358C124.151,117.696 126.659,118.236 129.168,118.978L127.074,129.448C124.827,128.641 122.776,128.079 120.922,127.763C119.068,127.446 117.279,127.288 115.556,127.288C113.266,127.288 111.204,127.61 109.372,128.254C107.54,128.897 105.98,129.797 104.693,130.953C103.406,132.109 102.419,133.511 101.732,135.157C101.045,136.804 100.701,138.62 100.701,140.605C100.701,142.808 100.93,144.772 101.389,146.495C101.847,148.218 102.556,149.68 103.515,150.879C104.475,152.079 105.691,152.995 107.164,153.628C108.636,154.26 110.387,154.577 112.415,154.577L116.603,154.577L116.603,144.99L109.274,145.971L109.274,137.824L129.168,137.824L129.168,159.943C127.554,160.903 125.994,161.704 124.489,162.348C122.984,162.991 121.5,163.504 120.039,163.885C118.577,164.267 117.132,164.54 115.703,164.703C114.275,164.867 112.83,164.949 111.368,164.949Z" style="fill:white;fill-rule:nonzero;stroke:white;stroke-width:4.45px;"/>
        <path d="M160.153,164.949C156.903,164.949 153.986,164.474 151.401,163.526C148.816,162.577 146.618,161.148 144.808,159.239C142.997,157.331 141.612,154.937 140.652,152.057C139.693,149.178 139.213,145.808 139.213,141.947L139.213,117.734L153.871,117.734L153.871,142.012C153.871,144.172 153.98,146.091 154.198,147.771C154.416,149.451 154.787,150.874 155.311,152.041C155.834,153.208 156.532,154.097 157.405,154.708C158.277,155.318 159.368,155.624 160.677,155.624C162.117,155.624 163.278,155.318 164.162,154.708C165.045,154.097 165.732,153.208 166.223,152.041C166.714,150.874 167.046,149.451 167.221,147.771C167.395,146.091 167.483,144.172 167.483,142.012L167.483,117.734L179.72,117.734L179.72,141.947C179.72,145.83 179.338,149.211 178.575,152.09C177.811,154.969 176.628,157.363 175.025,159.272C173.421,161.181 171.393,162.604 168.939,163.542C166.485,164.48 163.556,164.949 160.153,164.949Z" style="fill:white;fill-rule:nonzero;stroke:white;stroke-width:4.45px;"/>
        <path d="M190.877,117.734L208.742,117.734C211.84,117.734 214.561,117.925 216.906,118.307C219.251,118.688 221.285,119.228 223.008,119.926C224.731,120.624 226.166,121.464 227.311,122.446C228.456,123.427 229.372,124.502 230.059,125.669C230.746,126.836 231.232,128.085 231.515,129.415C231.799,130.746 231.941,132.12 231.941,133.538C231.941,134.738 231.804,135.937 231.532,137.137C231.259,138.337 230.801,139.482 230.157,140.573C229.514,141.663 228.658,142.678 227.589,143.616C226.52,144.554 225.206,145.372 223.646,146.07C222.087,146.768 220.243,147.313 218.117,147.706C215.99,148.098 213.541,148.294 210.771,148.294C210.378,148.294 209.888,148.289 209.299,148.278C208.71,148.267 208.132,148.24 207.564,148.196L205.536,148.065L205.536,164L190.877,164L190.877,117.734ZM205.536,140.965L208.906,140.965C210.476,140.965 211.796,140.774 212.865,140.393C213.934,140.011 214.796,139.493 215.45,138.838C216.104,138.184 216.573,137.41 216.857,136.515C217.14,135.621 217.282,134.661 217.282,133.636C217.282,132 217.075,130.648 216.661,129.579C216.246,128.51 215.663,127.654 214.91,127.01C214.157,126.367 213.269,125.914 212.243,125.652C211.218,125.391 210.106,125.26 208.906,125.26L205.536,125.26L205.536,140.965Z" style="fill:white;fill-rule:nonzero;stroke:white;stroke-width:4.45px;"/>
    </g>
</svg>
