<?xml version="1.0" encoding="utf-8"?>
<!DOCTYPE svg PUBLIC "-//W3C//DTD SVG 20010904//EN" "http://www.w3.org/TR/2001/REC-SVG-20010904/DTD/svg10.dtd">
<svg version="1.0" xmlns="http://www.w3.org/2000/svg" width="300px" height="260px" viewBox="0 0 300 260" preserveAspectRatio="xMidYMid meet">
 <g fill="#000000">
  <path d="M147.5 254.8 c-0.3 -0.7 -0.6 -31 -0.8 -67.3 l-0.2 -65.9 -19.7 18.7 c-10.8 10.3 -20.4 18.7 -21.1 18.7 -0.8 0 -1.8 -0.8 -2.2 -1.7 -0.7 -1.9 -0.6 -2 29.8 -30.8 8.7 -8.3 16.2 -15 16.7 -15 0.8 0 9.6 8.2 41 38.2 6 5.8 6.4 6.3 4.9 7.9 -1.1 1.1 -2.2 1.3 -3.2 0.8 -0.8 -0.5 -10 -8.9 -20.3 -18.8 l-18.9 -17.8 -0.5 66.8 c-0.3 36.8 -0.6 67 -0.8 67.2 -0.7 0.8 -4.3 0 -4.7 -1z"/>
  <path d="M54 200 c-14.6 -1.9 -25.4 -7.3 -36.1 -18 -8.2 -8.1 -13.5 -17.4 -15.9 -27.9 -1.8 -7.8 -0.8 -23.1 2 -30.6 6 -15.7 18.2 -28.2 33.9 -34.5 l6.4 -2.6 0.3 -9 c1.3 -36.5 28 -67 65.6 -74.9 9.3 -2 26.3 -2 35.3 -0.1 26.1 5.5 47.5 22 58.1 44.6 1.9 4.1 3.9 8.2 4.3 9 0.6 1.1 2 1.3 5.2 1 16.6 -1.8 31.4 0.8 46.2 8.2 16.9 8.5 29.3 22.5 36.3 41 2.6 6.7 2.8 8.4 2.9 21.8 0 16.3 -0.8 19.7 -7.8 33.5 -3.1 6.1 -6.2 10.1 -12.7 16.6 -7.3 7.2 -10.2 9.3 -19.1 13.7 -10.7 5.3 -18.4 7.5 -30.1 8.7 -6.4 0.6 -6.8 0.5 -7.7 -1.7 -0.5 -1.3 -4.6 -31.8 -9.1 -67.7 -4.4 -36 -8.2 -65.7 -8.5 -65.9 -0.2 -0.2 -4.8 0.3 -10.2 1.2 -18.6 3 -140.8 24 -141.1 24.2 -0.5 0.3 3.5 16.5 16 64.3 5.9 22.7 10.8 42.2 10.8 43.1 0 1 -0.7 2.1 -1.6 2.4 -2 0.8 -16.4 0.5 -23.4 -0.4z m14.3 -22.2 c-5.9 -22.6 -16.3 -61.5 -20.1 -74.8 -3.3 -12 -2.9 -11.8 -12.7 -6.8 -21.2 10.8 -33.1 34.6 -28.1 56.1 2.6 11.1 6.2 17.4 14.5 25.8 11.8 11.8 24 16.7 42.3 16.8 l8.6 0.1 -4.5 -17.2z m177.4 13.7 c11.1 -3.5 19.9 -8.9 28.9 -17.9 6.5 -6.5 8.9 -9.8 12.2 -16.6 9.3 -19.4 9.3 -37.2 0 -57 -7.7 -16.3 -25.7 -30.7 -44.8 -35.7 -6.1 -1.7 -31.1 -2.6 -32.3 -1.3 -0.3 0.4 15.4 128.3 16.2 131.8 0.2 1 13.4 -1.3 19.8 -3.3z m-128.3 -118.1 c87.8 -15.3 84.2 -14.5 83.8 -17.4 -0.1 -1.3 -1.6 -5 -3.3 -8.3 -9.3 -18.4 -25.9 -31.8 -47.4 -38.3 -7.7 -2.3 -10.9 -2.7 -22 -2.8 -13.8 0 -20 1.1 -31.7 5.8 -23.6 9.5 -40.7 30.1 -45.4 54.4 -1.4 7.5 -1.9 18.2 -0.8 18.2 0.4 0 30.4 -5.2 66.8 -11.6z"/>
 </g>
</svg>